<svg width="100" height="60" viewBox="0 0 100 60" fill="none" xmlns="http://www.w3.org/2000/svg">
<path d="M83.3922 57.6945C85.1734 59.1422 87.609 59.9712 90.1634 59.9993C92.7178 60.0273 95.1816 59.252 97.0129 57.844C98.8442 56.436 99.893 54.5105 99.9284 52.4912C99.9639 50.4719 98.9832 48.5242 97.2021 47.0765L75.0685 29.9531L97.2021 12.8298C98.0887 12.1347 98.7923 11.3077 99.2726 10.3965C99.7528 9.48526 100 8.50792 100 7.5208C100 6.53369 99.7528 5.55635 99.2726 4.64515C98.7923 3.73396 98.0887 2.90694 97.2021 2.21182C96.3228 1.51097 95.2766 0.954691 94.124 0.575071C92.9713 0.195451 91.735 -1.72241e-06 90.4863 -1.72241e-06C89.2377 -1.72241e-06 88.0014 0.195451 86.8487 0.575071C85.6961 0.954691 84.6499 1.51097 83.7706 2.21182L55.3942 24.6442C54.5076 25.3393 53.8039 26.1663 53.3237 27.0775C52.8435 27.9887 52.5963 28.966 52.5963 29.9531C52.5963 30.9403 52.8435 31.9176 53.3237 32.8288C53.8039 33.74 54.5076 34.567 55.3942 35.2621L83.3922 57.6945ZM2.99241 35.2621L31.3688 57.6945C33.1499 59.1025 35.5657 59.8935 38.0846 59.8935C40.6035 59.8935 43.0192 59.1025 44.8003 57.6945C46.5814 56.2864 47.5821 54.3767 47.5821 52.3855C47.5821 50.3942 46.5814 48.4845 44.8003 47.0765L23.0451 29.9531L44.8003 12.8298C45.6869 12.1347 46.3906 11.3077 46.8708 10.3965C47.351 9.48526 47.5982 8.50792 47.5982 7.5208C47.5982 6.53369 47.351 5.55635 46.8708 4.64515C46.3906 3.73396 45.6869 2.90694 44.8003 2.21182C43.921 1.51097 42.8748 0.954691 41.7222 0.575071C40.5696 0.195451 39.3332 -1.72241e-06 38.0846 -1.72241e-06C36.8359 -1.72241e-06 35.5996 0.195451 34.4469 0.575071C33.2943 0.954691 32.2481 1.51097 31.3688 2.21182L2.99241 24.6442C2.08064 25.3193 1.34709 26.1306 0.83412 27.0311C0.321154 27.9316 0.0389319 28.9036 0.00375402 29.8908C-0.0314239 30.878 0.181127 31.861 0.629154 32.7829C1.07718 33.7048 1.7518 34.5475 2.61405 35.2621H2.99241Z" fill="white"/>
</svg>
