<svg width="100" height="60" viewBox="0 0 100 60" fill="none" xmlns="http://www.w3.org/2000/svg">
<path d="M16.6078 2.30554C14.8266 0.857843 12.391 0.0287811 9.83659 0.000735275C7.28222 -0.0273106 4.81838 0.74796 2.98707 2.15599C1.15577 3.56402 0.107029 5.48947 0.0715516 7.50878C0.0360742 9.52808 1.01677 11.4758 2.7979 12.9235L24.9315 30.0469L2.7979 47.1702C1.91134 47.8653 1.20766 48.6923 0.727445 49.6035C0.247234 50.5147 0 51.4921 0 52.4792C0 53.4663 0.247234 54.4437 0.727445 55.3548C1.20766 56.266 1.91134 57.0931 2.7979 57.7882C3.67722 58.489 4.72337 59.0453 5.87601 59.4249C7.02866 59.8045 8.26498 60 9.51365 60C10.7623 60 11.9986 59.8045 13.1513 59.4249C14.3039 59.0453 15.3501 58.489 16.2294 57.7882L44.6058 35.3558C45.4924 34.6607 46.1961 33.8337 46.6763 32.9225C47.1565 32.0113 47.4037 31.034 47.4037 30.0469C47.4037 29.0597 47.1565 28.0824 46.6763 27.1712C46.1961 26.26 45.4924 25.433 44.6058 24.7379L16.6078 2.30554ZM97.0076 24.7379L68.6312 2.30554C66.8501 0.897505 64.4343 0.106482 61.9154 0.106482C59.3965 0.106482 56.9808 0.897505 55.1997 2.30554C53.4186 3.71357 52.4179 5.62327 52.4179 7.61452C52.4179 9.60578 53.4186 11.5155 55.1997 12.9235L76.9549 30.0469L55.1997 47.1702C54.3131 47.8653 53.6094 48.6923 53.1292 49.6035C52.649 50.5147 52.4018 51.4921 52.4018 52.4792C52.4018 53.4663 52.649 54.4437 53.1292 55.3548C53.6094 56.266 54.3131 57.0931 55.1997 57.7882C56.079 58.489 57.1252 59.0453 58.2778 59.4249C59.4304 59.8045 60.6668 60 61.9154 60C63.1641 60 64.4004 59.8045 65.5531 59.4249C66.7057 59.0453 67.7519 58.489 68.6312 57.7882L97.0076 35.3558C97.9194 34.6807 98.6529 33.8694 99.1659 32.9689C99.6788 32.0684 99.9611 31.0964 99.9962 30.1092C100.031 29.122 99.8189 28.139 99.3708 27.2171C98.9228 26.2952 98.2482 25.4525 97.3859 24.7379H97.0076Z" fill="white"/>
</svg>
