<svg width="90" height="90" viewBox="0 0 90 90" fill="none" xmlns="http://www.w3.org/2000/svg">
<path d="M44.9531 7.45898C44.1585 7.47141 43.4013 7.79859 42.8476 8.36872C42.294 8.93885 41.9891 9.70535 42 10.5V12H25.5C25.1026 11.9946 24.7081 12.0682 24.3394 12.2166C23.9707 12.3649 23.6351 12.585 23.3522 12.8641C23.0693 13.1432 22.8446 13.4758 22.6913 13.8424C22.538 14.2091 22.459 14.6026 22.459 15H18C17.6025 14.9944 17.2078 15.0678 16.8389 15.2161C16.47 15.3643 16.1342 15.5844 15.8511 15.8635C15.568 16.1427 15.3432 16.4753 15.1897 16.842C15.0363 17.2088 14.9573 17.6024 14.9573 18C14.9573 18.3976 15.0363 18.7912 15.1897 19.158C15.3432 19.5247 15.568 19.8573 15.8511 20.1365C16.1342 20.4156 16.47 20.6357 16.8389 20.7839C17.2078 20.9322 17.6025 21.0056 18 21H72C72.3975 21.0056 72.7922 20.9322 73.1611 20.7839C73.53 20.6357 73.8658 20.4156 74.1489 20.1365C74.432 19.8573 74.6568 19.5247 74.8103 19.158C74.9637 18.7912 75.0427 18.3976 75.0427 18C75.0427 17.6024 74.9637 17.2088 74.8103 16.842C74.6568 16.4753 74.432 16.1427 74.1489 15.8635C73.8658 15.5844 73.53 15.3643 73.1611 15.2161C72.7922 15.0678 72.3975 14.9944 72 15H67.541C67.541 14.6026 67.4621 14.2091 67.3087 13.8424C67.1554 13.4758 66.9307 13.1432 66.6478 12.8641C66.3649 12.585 66.0293 12.3649 65.6606 12.2166C65.2919 12.0682 64.8974 11.9946 64.5 12H48V10.5C48.0055 10.0986 47.9304 9.70024 47.7792 9.32842C47.6279 8.9566 47.4036 8.61891 47.1195 8.33534C46.8354 8.05178 46.4972 7.82811 46.1251 7.67758C45.753 7.52705 45.3545 7.45272 44.9531 7.45898ZM18 27L23.3789 72.7031C23.7329 75.7241 26.29 78 29.332 78H60.668C63.71 78 66.2641 75.7241 66.6211 72.7031L72 27H18Z" fill="white"/>
</svg>
